<?xml version="1.0" encoding="UTF-8"?>
<svg version="1.1" xmlns="http://www.w3.org/2000/svg" width="1024" height="1024">
<path d="M0 0 C1.74405956 1.7654154 3.29284902 3.53650921 4.78125 5.51953125 C6.11600525 7.28666204 6.11600525 7.28666204 9 9 C9 9.99 9 10.98 9 12 C9.66 12 10.32 12 11 12 C14.716729 16.43641392 17.85172187 21.06887472 18 27 C16.37298805 28.62701195 14.62646295 28.24940591 12.375 28.3125 C2.36078918 28.2208667 -6.73411886 25.58153919 -15 20 C-17.79561167 20.12245809 -17.79561167 20.12245809 -20 21 C-19.67 23.31 -19.34 25.62 -19 28 C-18.0925 28.061875 -17.185 28.12375 -16.25 28.1875 C-13 29 -13 29 -10.75 30.875 C-6.34329708 38.74411235 -6.8615395 47.66731158 -6.99609375 56.44921875 C-7.00079138 60.71936372 -6.59282593 64.77611523 -6 69 C-7.958964 68.69147815 -9.91715713 68.3780582 -11.875 68.0625 C-12.96554687 67.88847656 -14.05609375 67.71445312 -15.1796875 67.53515625 C-18 67 -18 67 -20 66 C-21.37869934 65.83966104 -22.76312476 65.72681695 -24.1484375 65.640625 C-33.43843758 64.95695698 -41.31081655 64.24805251 -49.6875 59.92578125 C-51.9255277 58.83231531 -51.9255277 58.83231531 -54.1875 59.16796875 C-56.36175354 59.97413591 -56.36175354 59.97413591 -58 63 C-62.8144466 80.59353327 -59.10494229 100.17227447 -53 117 C-52.75765625 117.67353516 -52.5153125 118.34707031 -52.265625 119.04101562 C-46.59978689 134.63595729 -39.57237177 149.35173418 -30.51953125 163.27734375 C-29.82923828 164.34662109 -29.82923828 164.34662109 -29.125 165.4375 C-28.71507812 166.05496094 -28.30515625 166.67242187 -27.8828125 167.30859375 C-27 169 -27 169 -27 172 C-26.34 172 -25.68 172 -25 172 C-23.4921875 173.86328125 -23.4921875 173.86328125 -21.875 176.3125 C-21.33617187 177.11300781 -20.79734375 177.91351563 -20.2421875 178.73828125 C-19 181 -19 181 -19 184 C-18.34 184 -17.68 184 -17 184 C-15.71825044 185.6969642 -14.52591998 187.46171796 -13.375 189.25 C-12.6634375 190.34441406 -11.951875 191.43882812 -11.21875 192.56640625 C-10.66767578 193.42129639 -10.66767578 193.42129639 -10.10546875 194.29345703 C-8.38915742 196.94297474 -6.63074773 199.56400772 -4.875 202.1875 C-4.22273438 203.16976562 -3.57046875 204.15203125 -2.8984375 205.1640625 C-1.66811283 207.00195491 -0.42409028 208.83078041 0.8359375 210.6484375 C1.65964844 211.84339844 1.65964844 211.84339844 2.5 213.0625 C2.9846875 213.75472656 3.469375 214.44695312 3.96875 215.16015625 C5 217 5 217 5 220 C5.66 220 6.32 220 7 220 C10.02766121 225.3180905 13.02179872 230.65407164 16 236 C16.38961914 236.69432129 16.77923828 237.38864258 17.18066406 238.10400391 C30.98739506 262.82479605 43.45021439 292.27846486 35.5 321.0625 C26.49082264 344.98010252 26.49082264 344.98010252 17.44921875 349.18676758 C10.30195269 351.71438793 3.04986463 353.06727568 -4.4375 354.125 C-6.12214355 354.37419189 -6.12214355 354.37419189 -7.84082031 354.62841797 C-15.74694888 355.76569276 -23.66126909 356.67302526 -31.62280273 357.31689453 C-36.13847922 357.68685357 -40.57736909 358.23059624 -45.0546875 358.9296875 C-55.93893339 360.51648676 -66.90885958 361.21776788 -77.875 362 C-79.08339539 362.08648804 -80.29179077 362.17297607 -81.5368042 362.26208496 C-156.42423416 367.53456137 -232.64068611 368.92995668 -307.4375 362.0625 C-308.74308365 361.94352356 -308.74308365 361.94352356 -310.07504272 361.82214355 C-320.47903806 360.85470057 -330.74713387 359.49854631 -341.03613281 357.67529297 C-344.78150983 357.01734756 -348.53716335 356.52067192 -352.3125 356.0625 C-391.73107682 350.95581071 -391.73107682 350.95581071 -407 342 C-407 341.34 -407 340.68 -407 340 C-407.556875 339.95875 -408.11375 339.9175 -408.6875 339.875 C-412.19328368 338.54848726 -413.73119016 335.90873056 -416 333 C-416.8971875 332.13375 -416.8971875 332.13375 -417.8125 331.25 C-419 330 -419 330 -419 328 C-419.99 327.67 -420.98 327.34 -422 327 C-423.60546875 325.00390625 -423.60546875 325.00390625 -425.1875 322.5625 C-425.98220703 321.35787109 -425.98220703 321.35787109 -426.79296875 320.12890625 C-428 318 -428 318 -428 316 C-428.66 316 -429.32 316 -430 316 C-430.0825 315.38125 -430.165 314.7625 -430.25 314.125 C-430.77695323 311.8419559 -430.77695323 311.8419559 -432.84765625 311.09375 C-435.3171676 309.8388259 -436.45576015 308.52150224 -438.1875 306.375 C-441.55393827 302.36454745 -445.26936677 299.02300147 -449.27734375 295.6640625 C-450.13005859 294.84035156 -450.13005859 294.84035156 -451 294 C-451 293.34 -451 292.68 -451 292 C-451.5775 291.731875 -452.155 291.46375 -452.75 291.1875 C-455.05550043 289.97070811 -457.02056192 288.69666121 -459 287 C-459 286.34 -459 285.68 -459 285 C-459.86625 284.6596875 -459.86625 284.6596875 -460.75 284.3125 C-465.29176138 281.6631392 -467.95141906 276.71638839 -470.75 272.375 C-471.36359375 271.43398438 -471.9771875 270.49296875 -472.609375 269.5234375 C-474 267 -474 267 -474 264 C-472.35 264.33 -470.7 264.66 -469 265 C-469.99 263.515 -469.99 263.515 -471 262 C-471 261.34 -471 260.68 -471 260 C-471.66 260 -472.32 260 -473 260 C-479.62311101 251.39855713 -485.21920001 242.93119988 -486 232 C-481.29154835 232.70303011 -477.17193248 234.42254899 -472.8125 236.25 C-471.66769165 236.72469727 -471.66769165 236.72469727 -470.49975586 237.20898438 C-466.6085428 238.84042312 -462.80142544 240.53902512 -459.0625 242.5 C-444.91457811 249.80215323 -423.57643933 259.69915855 -407.5 259.125 C-405.7675 259.063125 -405.7675 259.063125 -404 259 C-404.71285156 258.49210937 -405.42570312 257.98421875 -406.16015625 257.4609375 C-421.26693775 246.60357368 -421.26693775 246.60357368 -422.875 243.0859375 C-423 241 -423 241 -421.8046875 238.9921875 C-408.97663032 224.91767942 -392.83036238 215.40690576 -375 209 C-373.49770132 208.38054567 -371.99734179 207.75634187 -370.5 207.125 C-357.15652233 201.77944778 -342.75758836 197.51913499 -328.54296875 195.26171875 C-327.44952148 195.08310303 -327.44952148 195.08310303 -326.33398438 194.90087891 C-324.30271178 194.58066237 -322.26663862 194.29134188 -320.23046875 194.00390625 C-316.84631638 193.30253872 -316.84631638 193.30253872 -315.18359375 190.53125 C-314.79300781 189.6959375 -314.40242187 188.860625 -314 188 C-298.12823085 172.59504759 -268.35051085 173.5455702 -247.9765625 173.81640625 C-224.93026895 174.32068095 -202.79776715 178.51221739 -181 186 C-179.88890869 186.37390869 -179.88890869 186.37390869 -178.75537109 186.75537109 C-176.43789412 187.53625481 -174.12447387 188.32798134 -171.8125 189.125 C-171.10496582 189.36661865 -170.39743164 189.6082373 -169.66845703 189.85717773 C-165.79680779 191.22136198 -162.50380722 192.89662584 -159 195 C-157.73317961 195.49348863 -156.4574096 195.96432384 -155.17578125 196.41796875 C-150.90426085 197.95859914 -147.10230603 200.02986918 -143.1875 202.3125 C-141.78170495 203.12058365 -140.37545343 203.9278737 -138.96875 204.734375 C-138.29070312 205.12431641 -137.61265625 205.51425781 -136.9140625 205.91601562 C-134.36912337 207.35728218 -131.77901065 208.70716972 -129.1875 210.0625 C-124.20812605 212.74834413 -119.72931823 215.96285212 -115.21484375 219.36328125 C-113.11081771 221.01621753 -113.11081771 221.01621753 -111 222 C-111 222.66 -111 223.32 -111 224 C-110.40687012 224.1124707 -109.81374023 224.22494141 -109.20263672 224.34082031 C-106.80306659 225.05893596 -105.62212596 225.90071982 -103.7578125 227.546875 C-103.16613281 228.0625 -102.57445312 228.578125 -101.96484375 229.109375 C-101.35769531 229.65078125 -100.75054688 230.1921875 -100.125 230.75 C-98.91958729 231.80765244 -97.71386093 232.86494753 -96.5078125 233.921875 C-95.63431152 234.6962793 -95.63431152 234.6962793 -94.74316406 235.48632812 C-93.0470527 236.95914191 -91.30875458 238.36278333 -89.5546875 239.765625 C-88.71164062 240.50296875 -87.86859375 241.2403125 -87 242 C-87 242.66 -87 243.32 -87 244 C-85.68 244.66 -84.36 245.32 -83 246 C-83 246.66 -83 247.32 -83 248 C-82.42121094 248.26167969 -81.84242188 248.52335937 -81.24609375 248.79296875 C-78.86429369 250.07292739 -77.07683354 251.51356054 -75.0625 253.3125 C-74.41410156 253.88613281 -73.76570313 254.45976563 -73.09765625 255.05078125 C-71.56449773 256.47544811 -70.07364857 257.94602883 -68.609375 259.44140625 C-62.0551998 265.86803013 -54.88420697 271.43724799 -46 274 C-45.56276845 256.00063462 -49.27200179 242.96749923 -57.5703125 226.88671875 C-58.5919781 224.82384749 -59.54447426 222.72613569 -60.44921875 220.609375 C-62.06487994 216.84899479 -63.83929032 213.21181083 -65.6875 209.5625 C-66.03562744 208.87003174 -66.38375488 208.17756348 -66.74243164 207.46411133 C-68.16029307 204.64401142 -69.58264911 201.82619269 -71.00585938 199.00878906 C-75.41324699 190.27758706 -79.69942963 181.4993928 -83.85522461 172.64526367 C-85.54927635 169.03963604 -87.26796582 165.45709876 -89.08203125 161.91015625 C-90.96254164 158.17038939 -92.50161892 154.36670549 -93.9375 150.4375 C-94.31926392 149.40278564 -94.31926392 149.40278564 -94.70874023 148.34716797 C-97.29522538 141.28168689 -99.73992192 134.17686455 -102 127 C-102.21543457 126.33339355 -102.43086914 125.66678711 -102.65283203 124.97998047 C-112.45928885 94.27617343 -115.64144556 53.69857885 -101 24 C-100.40251953 22.74123047 -100.40251953 22.74123047 -99.79296875 21.45703125 C-98.89814698 19.61995899 -97.95608829 17.80594454 -97 16 C-96.34 16 -95.68 16 -95 16 C-94.94328125 15.46375 -94.8865625 14.9275 -94.828125 14.375 C-93.61976806 10.9095235 -91.22942632 8.61537398 -88.75 6 C-88.27175781 5.47921875 -87.79351563 4.9584375 -87.30078125 4.421875 C-84.41054628 1.32015943 -81.49072676 -1.56351958 -78 -4 C-77.01 -4 -76.02 -4 -75 -4 C-75 -4.66 -75 -5.32 -75 -6 C-72.838672 -6.99263238 -70.67209092 -7.96892476 -68.5 -8.9375 C-67.89929688 -9.21529297 -67.29859375 -9.49308594 -66.6796875 -9.77929688 C-46.61196768 -18.63898169 -16.7875093 -13.03884218 0 0 Z " fill="#000000" transform="translate(703,316)"/>
<path d="M0 0 C0 0.99 0 1.98 0 3 C-20.08000656 6.94931706 -20.08000656 6.94931706 -27.9375 7.9375 C-42.80996703 9.93820092 -57.58086449 13.90332097 -72 18 C-72.77053711 18.21769043 -73.54107422 18.43538086 -74.33496094 18.65966797 C-88.08835434 22.57194719 -102.0003797 26.55837353 -114.265625 34.1171875 C-116 35 -116 35 -119 35 C-119 35.66 -119 36.32 -119 37 C-120.64453125 38.3671875 -120.64453125 38.3671875 -122.8125 39.875 C-126.809003 42.65580901 -129.49481555 45.06345962 -130.75 49.875 C-131.01000811 53.12510136 -130.68103913 55.8218174 -130 59 C-129.01 59.33 -128.02 59.66 -127 60 C-126.2678125 60.763125 -125.535625 61.52625 -124.78125 62.3125 C-121.57981604 65.40602046 -118.48011069 67.10188889 -114.5 69 C-113.4339856 69.51699463 -113.4339856 69.51699463 -112.34643555 70.04443359 C-99.3356563 76.26476131 -85.87090255 80.21540039 -72 84 C-70.79633789 84.33281982 -70.79633789 84.33281982 -69.56835938 84.67236328 C-50.94813471 89.81045456 -32.07087159 93.93157056 -13 97 C-11.62763184 97.22187988 -11.62763184 97.22187988 -10.22753906 97.44824219 C4.19378911 99.76184934 18.64377036 101.80384636 33.12573242 103.69311523 C34.32689697 103.84981689 35.52806152 104.00651855 36.765625 104.16796875 C37.82555664 104.30485107 38.88548828 104.4417334 39.97753906 104.58276367 C42.00985064 104.8633146 44.03779183 105.17735361 46.06005859 105.52294922 C48.80588363 105.96850163 51.50077947 106.25560104 54.2734375 106.46484375 C55.26472656 106.54283203 56.25601563 106.62082031 57.27734375 106.70117188 C59.30331538 106.85573844 61.32935473 107.00942057 63.35546875 107.16210938 C69.19554406 107.62316795 74.99331295 108.23732939 80.80078125 109.00390625 C88.78733699 110.04535594 96.76927736 110.57522345 104.8125 111 C107.44416066 111.14361766 110.07566148 111.28877288 112.70703125 111.4375 C113.7496386 111.49576462 113.7496386 111.49576462 114.81330872 111.5552063 C120.3892281 111.87845355 125.95574204 112.29538488 131.52426147 112.72659302 C145.90566846 113.83550144 160.27163107 114.64109884 174.6875 115.125 C175.91835327 115.16669312 177.14920654 115.20838623 178.4173584 115.25134277 C254.77680515 117.72115801 332.61333384 118.82517429 408.75390625 111.65234375 C414.89879258 111.07395484 421.02046 110.71470172 427.1875 110.5 C435.91285456 110.18049986 444.51714619 109.21729605 453.18115234 108.15844727 C460.5498225 107.26154861 467.91393721 106.53672446 475.3125 105.9375 C482.18682519 105.37450403 488.95683495 104.65367566 495.76171875 103.5 C499.87084032 102.86553973 503.99064668 102.43399055 508.125 102 C513.88594381 101.3897583 519.5353993 100.60862811 525.22265625 99.48828125 C528.49275273 98.91336977 531.7625943 98.55491926 535.0625 98.1875 C545.82449488 96.94471109 556.41298699 94.68511545 567.03173828 92.57861328 C569.53746014 92.09016446 572.04426159 91.62499745 574.55859375 91.18359375 C584.87793853 89.3649781 594.91079386 86.79502782 605 84 C605.66338379 83.81791992 606.32676758 83.63583984 607.01025391 83.44824219 C638.13623806 75.68469537 638.13623806 75.68469537 664 58 C664.79464031 55.83874377 664.79464031 55.83874377 664.9375 53.5625 C665.02902344 52.82128906 665.12054687 52.08007812 665.21484375 51.31640625 C664.67660605 45.51322519 660.06668207 41.68786151 655.8828125 38.109375 C644.36987267 29.68527269 630.42240118 25.36091075 617 21 C615.9162207 20.64228516 615.9162207 20.64228516 614.81054688 20.27734375 C600.86185171 15.68464073 586.75539395 12.23176987 572.33251953 9.45800781 C569.56047248 8.91369545 566.79410217 8.34401919 564.02734375 7.7734375 C553.57858329 5.6292319 543.20179263 3.55488079 532.59765625 2.359375 C530 2 530 2 528 1 C528 0.34 528 -0.32 528 -1 C537.7179413 -1.34891545 546.63165927 -0.78270526 556.1484375 1.21484375 C559.68077761 1.93492525 563.17655635 2.47303601 566.75 2.9375 C593.64859825 6.65395412 623.35807804 12.35253206 648 24 C648.71929688 24.33773437 649.43859375 24.67546875 650.1796875 25.0234375 C655.22764806 27.47867124 660.11377846 30.24018969 665 33 C665 33.66 665 34.32 665 35 C665.58523438 35.08894531 666.17046875 35.17789063 666.7734375 35.26953125 C671.00720345 36.65850359 673.43472391 40.51070758 676 44 C678.33918361 48.78007086 678.72511952 53.75894627 678 59 C676.77686649 61.83766974 675.82991584 63.63219981 674 66 C673.59523438 66.54011719 673.19046875 67.08023438 672.7734375 67.63671875 C663.13305567 78.69480379 647.56450574 84.4878983 634 89 C632.42543088 89.54064734 630.85122348 90.08234905 629.27734375 90.625 C622.2337169 93.02871518 615.24654497 95.27501244 608 97 C606.13927849 97.45554773 604.27860524 97.91129263 602.41796875 98.3671875 C578.79833709 104.10067788 555.3457799 108.57063867 531.28271484 111.94335938 C526.91732487 112.5605718 522.57935891 113.22286676 518.25 114.0625 C513.01584632 115.06619666 507.74304347 115.65823526 502.45019531 116.25024414 C498.11400841 116.73813671 493.81145951 117.32119703 489.5 118 C481.92250647 119.11870723 474.30978133 119.67069239 466.671875 120.21484375 C460.90568617 120.63784602 455.1894099 121.21128924 449.453125 121.9375 C437.03467998 123.46609967 424.54409637 124.18913539 412.0625 125 C411.40404587 125.04316471 410.74559174 125.08632942 410.06718445 125.13080215 C349.74470284 129.08382398 289.07213387 130.8873943 228.625 129.625 C227.5922998 129.60354919 226.55959961 129.58209839 225.49560547 129.55999756 C187.83506963 128.76076111 150.21803963 127.59463675 112.66679382 124.5330658 C106.45896085 124.02807699 100.24836896 123.59641396 94.03393555 123.1796875 C84.5701641 122.54238784 75.18862914 121.77844399 65.7890625 120.4921875 C62.29730817 120.03861941 58.81309675 119.67892979 55.30810547 119.35205078 C23.65843747 116.39858989 -7.91043724 111.60161456 -39 105 C-39.85094238 104.81937012 -40.70188477 104.63874023 -41.57861328 104.45263672 C-70.99859912 98.15639252 -100.07525906 90.71637746 -127 77 C-127 76.34 -127 75.68 -127 75 C-127.55558594 74.92136719 -128.11117187 74.84273437 -128.68359375 74.76171875 C-131.80876929 73.7340472 -133.6239707 72.00827978 -136.0625 69.8125 C-136.91972656 69.05582031 -137.77695313 68.29914063 -138.66015625 67.51953125 C-143.33927222 62.48108417 -144.52090081 58.06698504 -144.28125 51.38671875 C-143.8820165 47.99877889 -142.89167513 45.8375127 -141 43 C-140.46632813 42.18982422 -140.46632813 42.18982422 -139.921875 41.36328125 C-125.15229546 21.56670627 -92.10753263 15.53513447 -69.49072266 10.55517578 C-66.38142028 9.86212015 -63.28492042 9.11916013 -60.1875 8.375 C-44.89972708 4.85763322 -29.2977787 2.77114198 -13.7980957 0.43310547 C-11.80229255 0.12418349 -9.8114744 -0.21769073 -7.82495117 -0.58154297 C-4.8953591 -1.01550035 -2.843009 -0.75256121 0 0 Z " fill="#000000" transform="translate(243,617)"/>
<path d="M0 0 C0.84868652 0.11786865 1.69737305 0.2357373 2.57177734 0.35717773 C3.48652832 0.49325439 4.4012793 0.62933105 5.34375 0.76953125 C6.28557129 0.9075415 7.22739258 1.04555176 8.19775391 1.18774414 C17.18765903 2.55353854 26.01864992 4.40330218 34.84375 6.58203125 C35.50068848 6.74316406 36.15762695 6.90429688 36.83447266 7.0703125 C52.59505107 10.98361282 67.37484293 16.2160422 81.84375 23.58203125 C81.84375 24.24203125 81.84375 24.90203125 81.84375 25.58203125 C82.71 25.70578125 82.71 25.70578125 83.59375 25.83203125 C87.19543144 27.03259173 89.01409806 29.07357318 90.83203125 32.37890625 C92.48114305 36.12754806 92.91849973 38.14100785 92.21875 42.26953125 C87.14762714 54.48632723 76.91206991 58.90603348 65.28515625 63.79296875 C55.99637877 67.58406547 46.59329785 70.27236762 36.84375 72.58203125 C35.23415789 72.9782858 33.62480166 73.37549919 32.015625 73.7734375 C21.91282425 76.25349673 11.8343662 78.47913169 1.56298828 80.14013672 C-1.78407736 80.68405742 -5.12813151 81.24535846 -8.47265625 81.8046875 C-20.9613728 83.87943424 -33.42892456 85.93214911 -46.0390625 87.125 C-49.3902385 87.45735856 -52.68916295 87.98785972 -56.01171875 88.53515625 C-64.41920767 89.85503509 -72.86461666 90.48478164 -81.34375 91.14453125 C-83.71500151 91.33311777 -86.08614088 91.52305402 -88.45724487 91.71348572 C-89.98560407 91.83614832 -91.51402586 91.95803361 -93.04251099 92.07911682 C-96.7650907 92.37658608 -100.4792146 92.70680531 -104.19140625 93.11328125 C-111.57161568 93.87994415 -118.9977371 94.14701456 -126.40625 94.51953125 C-129.43243976 94.67173606 -132.45845196 94.82695833 -135.484375 94.984375 C-136.24676829 95.02344341 -137.00916159 95.06251183 -137.79465771 95.10276413 C-142.72455398 95.3659912 -147.64570936 95.68616021 -152.56794739 96.06732178 C-171.00293581 97.46870542 -189.31761401 97.89651347 -207.79924273 97.88361382 C-210.93604925 97.88251647 -214.07283684 97.88749598 -217.20963913 97.89221925 C-224.64294874 97.90318436 -232.07620778 97.90382773 -239.50952148 97.89770508 C-246.21628626 97.89235262 -252.92289859 97.89940705 -259.62963867 97.91821289 C-328.46980716 98.10707259 -328.46980716 98.10707259 -359.67100525 94.89877319 C-365.0763818 94.40752807 -370.48227525 94.22738908 -375.90625 94.08203125 C-385.53030355 93.76878338 -395.00962784 92.80680973 -404.56958008 91.66796875 C-410.74812049 90.93702435 -416.87819996 90.34625201 -423.09375 90.08203125 C-430.02979266 89.74751738 -436.76790603 88.83584757 -443.62207031 87.74047852 C-449.35124394 86.82912005 -455.07330789 86.11212889 -460.84375 85.51953125 C-465.92570849 84.9912893 -470.85951458 84.33843151 -475.81640625 83.08203125 C-480.32391484 82.11882407 -484.93292987 81.68162439 -489.5078125 81.14453125 C-493.18740863 80.57722735 -496.58824794 79.63095778 -500.15625 78.58203125 C-501.94230387 78.2577621 -503.73445383 77.9652219 -505.53125 77.70703125 C-510.774886 76.8717618 -515.92579632 75.78881227 -521.09375 74.58203125 C-521.81546387 74.41590332 -522.53717773 74.24977539 -523.28076172 74.07861328 C-527.05707159 73.18150813 -530.58019847 72.08044721 -534.15625 70.58203125 C-536.03718511 70.12004719 -537.91829244 69.65873674 -539.80078125 69.203125 C-553.70111262 65.5378635 -571.24420833 60.3482369 -580.45703125 48.6640625 C-583.08334836 43.90046663 -583.25516159 39.87336581 -582.15625 34.58203125 C-578.60766522 28.15710913 -572.30590997 24.26530816 -566.15625 20.58203125 C-565.34414063 20.0715625 -564.53203125 19.56109375 -563.6953125 19.03515625 C-553.65751374 13.29044681 -540.90368002 10.03653327 -529.5703125 8.07421875 C-526.99399393 7.58395595 -526.99399393 7.58395595 -523.88671875 6.625 C-519.89078151 5.50781126 -515.9285156 4.72058221 -511.84375 4.01953125 C-511.10261963 3.89022217 -510.36148926 3.76091309 -509.59790039 3.62768555 C-504.13027694 2.69564329 -498.68757705 2.02102546 -493.15625 1.58203125 C-493.15625 2.90203125 -493.15625 4.22203125 -493.15625 5.58203125 C-494.13343994 5.79182617 -494.13343994 5.79182617 -495.13037109 6.00585938 C-507.96643462 8.79114858 -520.65930336 11.84705951 -533.21875 15.70703125 C-534.81178955 16.19333008 -534.81178955 16.19333008 -536.43701172 16.68945312 C-544.34105514 19.17102829 -551.85309189 22.10199257 -559.03125 26.26953125 C-561.45781842 27.67415777 -563.47669811 28.68884729 -566.15625 29.58203125 C-567.36507096 31.58219591 -567.36507096 31.58219591 -568.15625 33.58203125 C-568.81625 33.58203125 -569.47625 33.58203125 -570.15625 33.58203125 C-570.20400635 36.71348336 -570.04616375 39.5684597 -569.15625 42.58203125 C-567.43836658 44.31643278 -565.7756716 45.41740625 -563.65234375 46.609375 C-563.15863281 46.93035156 -562.66492188 47.25132812 -562.15625 47.58203125 C-562.15625 48.24203125 -562.15625 48.90203125 -562.15625 49.58203125 C-561.310625 49.68902344 -560.465 49.79601562 -559.59375 49.90625 C-555.83272313 50.64563369 -552.68133302 51.89409182 -549.15625 53.39453125 C-516.66698901 66.8082636 -478.95204844 71.41307584 -444.27581787 75.34118652 C-441.88101645 75.61330581 -439.48667142 75.88929123 -437.09228516 76.16503906 C-415.00499837 78.69629568 -392.95971103 81.02794772 -370.74376106 82.02817935 C-364.08567679 82.33054213 -357.43231881 82.67142344 -350.78039551 83.08830261 C-331.01555545 84.31547441 -311.33608258 84.89790037 -291.53493309 84.88361382 C-288.46864005 84.88250824 -285.40236597 84.88751583 -282.33607721 84.89221925 C-275.05460206 84.90315441 -267.77317851 84.90384719 -260.49169922 84.89770508 C-253.96331802 84.89236873 -247.43509398 84.89936512 -240.90673828 84.91821289 C-204.71359245 85.02034338 -168.73208077 84.7088087 -132.60992718 82.12900734 C-124.25694557 81.54809372 -115.89912985 81.20853712 -107.53141785 80.91911602 C-100.23901748 80.66072335 -93.08007041 80.10884334 -85.84375 79.14453125 C-83.67725407 78.87492651 -81.51058461 78.60671284 -79.34375 78.33984375 C-78.30476563 78.2099707 -77.26578125 78.08009766 -76.1953125 77.94628906 C-71.58526946 77.3937357 -66.96603669 76.95529492 -62.34375 76.51953125 C-56.01996716 75.91285131 -49.77423341 75.11764657 -43.50390625 74.08203125 C-39.33626082 73.45955912 -35.15903887 73.02103839 -30.96875 72.58203125 C-25.43181704 71.99618507 -20.02854062 71.27061723 -14.5859375 70.0703125 C-11.74527325 69.49943946 -8.9052164 69.13825356 -6.03125 68.76953125 C9.80777148 66.57110969 25.46329189 62.91428821 40.84375 58.58203125 C41.79894531 58.33839844 42.75414062 58.09476563 43.73828125 57.84375 C53.92415362 55.23535064 63.51753878 51.41167635 72.84375 46.58203125 C74.266875 46.08703125 74.266875 46.08703125 75.71875 45.58203125 C77.9247609 44.73099962 77.9247609 44.73099962 79.21875 42.89453125 C80.18319884 39.32607055 79.8864473 37.1394691 78.84375 33.58203125 C74.52594158 28.15844262 68.00806407 25.38485301 61.84375 22.58203125 C61.07675781 22.22109375 60.30976562 21.86015625 59.51953125 21.48828125 C51.70172528 17.88636017 43.57584438 15.47394809 35.34375 13.01953125 C34.64378906 12.80949463 33.94382812 12.59945801 33.22265625 12.38305664 C24.14754338 9.71185547 14.86670556 7.93874222 5.59765625 6.08203125 C1.49270887 5.23592293 -2.31858679 4.32926003 -6.15625 2.58203125 C-6.15625 1.92203125 -6.15625 1.26203125 -6.15625 0.58203125 C-3.7100046 -0.64109145 -2.68362499 -0.3749856 0 0 Z " fill="#000000" transform="translate(754.15625,626.41796875)"/>
<path d="M0 0 C0 0.99 0 1.98 0 3 C-0.95261719 3.31453125 -1.90523438 3.6290625 -2.88671875 3.953125 C-4.15382851 4.38488092 -5.42074553 4.81720277 -6.6875 5.25 C-7.92886719 5.66765625 -9.17023438 6.0853125 -10.44921875 6.515625 C-14.92246563 8.3856292 -18.11360048 10.22720096 -20.3125 14.625 C-21.09268603 16.90810391 -21.09268603 16.90810391 -21 19 C-6.07610845 26.61922332 9.62554774 30.14760185 26 33 C27.46752882 33.25996037 28.93497555 33.52038454 30.40234375 33.78125 C33.30766759 34.29712464 36.21402295 34.80657331 39.12109375 35.3125 C42.21481682 35.8608336 45.29319807 36.45280812 48.375 37.0625 C54.0985875 38.11822269 59.87080116 38.67038232 65.66162109 39.21508789 C70.07950287 39.64242812 74.43617912 40.21759749 78.81640625 40.9375 C172.26568068 55.5813213 275.52162776 51.85687186 404.97694397 40.00587463 C409.78530077 39.27701975 414.51779815 38.75715869 419.375 38.5 C425.50375683 38.14460463 431.31987689 37.04322878 437.31640625 35.7578125 C440.86936006 35.02687609 444.41051439 34.45557009 448 33.9375 C452.48082825 33.27791336 456.65350239 32.28785114 461 31 C462.66494834 30.71879635 464.33187707 30.4492143 466 30.1875 C475.846117 28.46273192 489.75069555 25.24930445 497 18 C497 14.39135761 496.11934031 13.12562138 493.625 10.5 C489.99029458 7.70136483 485.88785259 5.98805684 481.68359375 4.2109375 C478.97173723 2.98724678 476.48869529 1.62912784 474 0 C474 -0.33 474 -0.66 474 -1 C484.26450608 -1.84135296 494.03175259 2.49297848 502 9 C502 9.66 502 10.32 502 11 C502.99 11.33 503.98 11.66 505 12 C506.49297212 14.98594424 506.11755228 17.70853624 506 21 C505.67 21.66 505.34 22.32 505 23 C504.34 23 503.68 23 503 23 C502.79375 23.5775 502.5875 24.155 502.375 24.75 C496.48259247 34.39212141 478.29541918 38.00130928 468.16308594 40.50024414 C461.06094633 42.18993263 453.91502231 43.66602495 446.75 45.0625 C445.99082275 45.21267578 445.23164551 45.36285156 444.44946289 45.51757812 C427.90185866 48.65188707 411.09483005 50.59747603 394.375 52.5625 C393.45412598 52.6708316 392.53325195 52.77916321 391.58447266 52.89077759 C377.09093733 54.57705902 362.64276911 55.793848 348.06601048 56.45857906 C342.03425913 56.73563921 336.0143783 57.05060401 329.99291992 57.50805664 C301.01935776 59.62647039 271.97552423 59.30460054 242.94333255 59.2571376 C237.04746332 59.24850908 231.1516805 59.25462734 225.25581676 59.264395 C219.44742992 59.27361396 213.63907905 59.27468402 207.83068722 59.26951766 C204.41183996 59.26647829 200.99309365 59.26660189 197.57424355 59.27259064 C179.06004897 59.2979348 160.71732395 58.53666469 142.25919437 57.22592735 C138.0806529 56.93627086 133.90121798 56.69803639 129.71875 56.47265625 C114.94571469 55.64395122 100.35411362 54.34784164 85.69140625 52.34814453 C81.36572674 51.78859999 77.0278382 51.36528097 72.6875 50.9375 C66.96121522 50.36257417 61.348154 49.6167841 55.69921875 48.4921875 C52.49799187 47.90846161 49.29245105 47.5196564 46.0625 47.125 C22.88730922 44.1134016 -0.87453283 39.14687793 -22 29 C-22 28.34 -22 27.68 -22 27 C-22.639375 26.896875 -23.27875 26.79375 -23.9375 26.6875 C-24.618125 26.460625 -25.29875 26.23375 -26 26 C-26.33 25.01 -26.66 24.02 -27 23 C-27.66 23 -28.32 23 -29 23 C-30.50934217 19.98131566 -30.17510672 17.32702771 -30 14 C-29.34 13.01 -28.68 12.02 -28 11 C-27.34 11 -26.68 11 -26 11 C-25.73832031 10.38125 -25.47664062 9.7625 -25.20703125 9.125 C-21.85206306 3.21851878 -11.89778371 1.54220846 -5.85546875 -0.36328125 C-3 -1 -3 -1 0 0 Z " fill="#000000" transform="translate(270,645)"/>
<path d="M0 0 C2.61777998 1.12983182 3.38867281 2.34694048 4.90234375 4.75 C5.67578125 5.97396484 5.67578125 5.97396484 6.46484375 7.22265625 C8.01061328 9.84660002 9.46767377 12.50139235 10.90234375 15.1875 C15.36763988 23.52037545 20.20709909 31.28502083 27.02734375 37.875 C32.02734375 43.3441358 32.02734375 43.3441358 32.02734375 45.875 C33.01734375 46.205 34.00734375 46.535 35.02734375 46.875 C37.23764333 50.83027293 37.44102338 54.40725997 37.02734375 58.875 C35.90234375 60.875 35.90234375 60.875 34.02734375 61.875 C29.52170168 61.67910252 26.7774924 60.22781786 23.02734375 57.875 C22.11855469 57.3078125 21.20976563 56.740625 20.2734375 56.15625 C19.34660156 55.5684375 18.41976562 54.980625 17.46484375 54.375 C16.53542969 53.7871875 15.60601563 53.199375 14.6484375 52.59375 C9.99810988 49.54435484 9.99810988 49.54435484 8.02734375 47.875 C8.02734375 47.215 8.02734375 46.555 8.02734375 45.875 C7.49625 45.80152344 6.96515625 45.72804688 6.41796875 45.65234375 C3.07263371 44.56456324 0.53828428 42.54783612 -2.22265625 40.4375 C-3.05410156 39.82551758 -3.05410156 39.82551758 -3.90234375 39.20117188 C-5.30076534 38.14546691 -6.64216277 37.01512413 -7.97265625 35.875 C-7.97265625 35.215 -7.97265625 34.555 -7.97265625 33.875 C-9.29265625 33.545 -10.61265625 33.215 -11.97265625 32.875 C-11.97265625 32.215 -11.97265625 31.555 -11.97265625 30.875 C-12.57078125 30.71 -13.16890625 30.545 -13.78515625 30.375 C-17.18764781 28.04186293 -18.16022997 24.83749422 -18.97265625 20.875 C-17.73884565 14.39749435 -11.52490718 9.31344465 -6.97265625 4.875 C-6.12703125 3.92625 -5.28140625 2.9775 -4.41015625 2 C-1.97265625 -0.125 -1.97265625 -0.125 0 0 Z " fill="#CE0101" transform="translate(715.97265625,358.125)"/>
<path d="M0 0 C0 0.99 0 1.98 0 3 C-14.37598006 6.04624287 -28.2798653 8.11323181 -43 8 C-42.34 7.67 -41.68 7.34 -41 7 C-41 6.34 -41 5.68 -41 5 C-35.54937548 3.53181831 -30.29727304 2.56601138 -24.6875 2 C-18.81334768 1.37062654 -13.07257489 0.54791068 -7.296875 -0.73046875 C-4.65348608 -1.04066235 -2.5689255 -0.64223138 0 0 Z " fill="#020101" transform="translate(243,617)"/>
<path d="M0 0 C16.70842825 -0.55353075 16.70842825 -0.55353075 25 3 C25 3.33 25 3.66 25 4 C17.49292495 5.53205613 6.97905989 5.48952995 0 2 C0 1.34 0 0.68 0 0 Z " fill="#161615" transform="translate(771,616)"/>
<path d="M0 0 C4.19360449 0.67097672 7.40334352 2.8558394 11 5 C11 5.66 11 6.32 11 7 C12.65 7.33 14.3 7.66 16 8 C16.33 8.99 16.66 9.98 17 11 C18.155 11.33 19.31 11.66 20.5 12 C21.655 12.33 22.81 12.66 24 13 C24.33 13.99 24.66 14.98 25 16 C18.17422019 14.66452134 13.51937936 11.09128819 8 7 C7.01 6.34 6.02 5.68 5 5 C5 4.34 5 3.68 5 3 C4.360625 2.87625 3.72125 2.7525 3.0625 2.625 C2.381875 2.41875 1.70125 2.2125 1 2 C0.67 1.34 0.34 0.68 0 0 Z " fill="#BD0000" transform="translate(719,401)"/>
<path d="M0 0 C0 1.32 0 2.64 0 4 C-1.89369084 4.36544911 -3.79008782 4.71689175 -5.6875 5.0625 C-7.27111328 5.35833984 -7.27111328 5.35833984 -8.88671875 5.66015625 C-11.91159216 5.99034946 -14.07980511 5.77474558 -17 5 C-12.35880806 0.74557406 -6.15776372 -0.38486023 0 0 Z " fill="#080706" transform="translate(261,628)"/>
<path d="M0 0 C0 0.99 0 1.98 0 3 C-6.6 3.33 -13.2 3.66 -20 4 C-20 3.67 -20 3.34 -20 3 C-18.35 3 -16.7 3 -15 3 C-15 2.34 -15 1.68 -15 1 C-13.44033408 0.63355422 -11.87707349 0.28239138 -10.3125 -0.0625 C-9.44238281 -0.25972656 -8.57226562 -0.45695313 -7.67578125 -0.66015625 C-4.83998724 -1.02032279 -2.75210018 -0.70909969 0 0 Z " fill="#121212" transform="translate(243,617)"/>
<path d="M0 0 C2.27024968 -0.08097324 4.54132075 -0.13917704 6.8125 -0.1875 C8.07707031 -0.22230469 9.34164062 -0.25710938 10.64453125 -0.29296875 C14 0 14 0 15.94921875 1.51171875 C16.29597656 2.00285156 16.64273438 2.49398437 17 3 C14.54159395 3.02691685 12.08348118 3.04679802 9.625 3.0625 C8.92632813 3.07087891 8.22765625 3.07925781 7.5078125 3.08789062 C2.2265625 3.11328125 2.2265625 3.11328125 0 2 C0 1.34 0 0.68 0 0 Z " fill="#1C1B1B" transform="translate(771,616)"/>
<path d="M0 0 C0 0.99 0 1.98 0 3 C-3.63 3.33 -7.26 3.66 -11 4 C-10.67 3.01 -10.34 2.02 -10 1 C-3.84210526 -1.28070175 -3.84210526 -1.28070175 0 0 Z " fill="#090909" transform="translate(270,645)"/>
<path d="M0 0 C0.66 0 1.32 0 2 0 C3.52491998 3.04983996 3.23562548 5.6423369 3 9 C1.6875 10.9375 1.6875 10.9375 0 12 C-0.99 12 -1.98 12 -3 12 C-3 11.34 -3 10.68 -3 10 C-2.01 10 -1.02 10 0 10 C0.20970559 5.85906302 0.20970559 5.85906302 -1 2 C-0.67 1.34 -0.34 0.68 0 0 Z " fill="#B90000" transform="translate(750,408)"/>
<path d="M0 0 C-0.33 0.66 -0.66 1.32 -1 2 C-3.06640625 2.4140625 -3.06640625 2.4140625 -5.5625 2.625 C-6.38878906 2.69976563 -7.21507812 2.77453125 -8.06640625 2.8515625 C-9.02353516 2.92503906 -9.02353516 2.92503906 -10 3 C-9.34 2.67 -8.68 2.34 -8 2 C-8 1.34 -8 0.68 -8 0 C-4.94736336 -0.98120464 -3.05263664 -0.98120464 0 0 Z " fill="#090808" transform="translate(210,622)"/>
<path d="M0 0 C-0.33 0.99 -0.66 1.98 -1 3 C-3.31 2.67 -5.62 2.34 -8 2 C-8 1.34 -8 0.68 -8 0 C-5.13822943 -1.43088528 -3.06624227 -0.59991697 0 0 Z " fill="#0E0E0E" transform="translate(756,627)"/>
<path d="M0 0 C2.97 0 5.94 0 9 0 C9 0.66 9 1.32 9 2 C6.69 2.33 4.38 2.66 2 3 C1.34 2.01 0.68 1.02 0 0 Z " fill="#080706" transform="translate(744,644)"/>
<path d="M0 0 C2.64 0 5.28 0 8 0 C7.67 0.66 7.34 1.32 7 2 C4.93359375 2.4140625 4.93359375 2.4140625 2.4375 2.625 C1.61121094 2.69976563 0.78492188 2.77453125 -0.06640625 2.8515625 C-1.02353516 2.92503906 -1.02353516 2.92503906 -2 3 C-1.34 2.67 -0.68 2.34 0 2 C0 1.34 0 0.68 0 0 Z " fill="#141312" transform="translate(252,629)"/>
<path d="M0 0 C0 0.33 0 0.66 0 1 C-4.29 0.67 -8.58 0.34 -13 0 C-13 -0.33 -13 -0.66 -13 -1 C-4.57142857 -2.42857143 -4.57142857 -2.42857143 0 0 Z " fill="#2A2B2A" transform="translate(788,618)"/>
<path d="M0 0 C3.37503669 1.1858237 5.64722731 2.27573689 8 5 C7.67 5.66 7.34 6.32 7 7 C6.01 6.34 5.02 5.68 4 5 C4 4.34 4 3.68 4 3 C2.68 2.67 1.36 2.34 0 2 C0 1.34 0 0.68 0 0 Z " fill="#BC0000" transform="translate(704,389)"/>
</svg>
